HIERARCHY
ROOT Hips
{
  OFFSET 267.745 86.9975 -272.335
  CHANNELS 6 Xposition Yposition Zposition Zrotation Xrotation Yrotation
  JOINT LeftUpLeg
  {
    OFFSET 8.64259 1.95398 -2.38835
    CHANNELS 3 Zrotation Xrotation Yrotation
    JOINT LeftLeg
    {
      OFFSET 43.7702 0 0
      CHANNELS 3 Zrotation Xrotation Yrotation
      JOINT LeftFoot
      {
        OFFSET 40.6238 0 0
        CHANNELS 3 Zrotation Xrotation Yrotation
        JOINT LeftToeBase
        {
          OFFSET 12.7242 0 0
          CHANNELS 3 Zrotation Xrotation Yrotation
          End Site
          {
            OFFSET 0 0 0
          }
        }
      }
    }
  }
  JOINT RightUpLeg
  {
    OFFSET -8.2249 1.95398 -2.59336
    CHANNELS 3 Zrotation Xrotation Yrotation
    JOINT RightLeg
    {
      OFFSET 43.5653 0 0
      CHANNELS 3 Zrotation Xrotation Yrotation
      JOINT RightFoot
      {
        OFFSET 40.6238 0 0
        CHANNELS 3 Zrotation Xrotation Yrotation
        JOINT RightToeBase
        {
          OFFSET 12.7242 0 0
          CHANNELS 3 Zrotation Xrotation Yrotation
          End Site
          {
            OFFSET 0 0 0
          }
        }
      }
    }
  }
  JOINT Spine
  {
    OFFSET 0.165834 0.87714 6.61349
    CHANNELS 3 Zrotation Xrotation Yrotation
    JOINT Spine1
    {
      OFFSET 7.38963 1.71661e-005 0
      CHANNELS 3 Zrotation Xrotation Yrotation
      JOINT Spine2
      {
        OFFSET 11.9445 1.14441e-005 0
        CHANNELS 3 Zrotation Xrotation Yrotation
        JOINT Spine3
        {
          OFFSET 14.7254 4.19617e-005 0
          CHANNELS 3 Zrotation Xrotation Yrotation
          JOINT Spine4
          {
            OFFSET 10.9679 0 0
            CHANNELS 3 Zrotation Xrotation Yrotation
            JOINT RightShoulder
            {
              OFFSET 2.46616 -1.6653 3.69651
              CHANNELS 3 Zrotation Xrotation Yrotation
              JOINT RightArm
              {
                OFFSET 13.0012 0 0
                CHANNELS 3 Zrotation Xrotation Yrotation
                JOINT RightForeArm
                {
                  OFFSET 28.7848 1.52588e-005 0
                  CHANNELS 3 Zrotation Xrotation Yrotation
                  JOINT RightHand
                  {
                    OFFSET 26.5688 1.52588e-005 0
                    CHANNELS 3 Zrotation Xrotation Yrotation
                    End Site
                    {
                      OFFSET 0 0 0
                    }
                  }
                }
              }
            }
            JOINT LeftShoulder
            {
              OFFSET 2.38034 -1.29275 -3.7523
              CHANNELS 3 Zrotation Xrotation Yrotation
              JOINT LeftArm
              {
                OFFSET 16.3182 6.10352e-005 0
                CHANNELS 3 Zrotation Xrotation Yrotation
                JOINT LeftForeArm
                {
                  OFFSET 27.0901 0 0
                  CHANNELS 3 Zrotation Xrotation Yrotation
                  JOINT LeftHand
                  {
                    OFFSET 24.5451 1.52588e-005 0
                    CHANNELS 3 Zrotation Xrotation Yrotation
                    End Site
                    {
                      OFFSET 0 0 0
                    }
                  }
                }
              }
            }
            JOINT Neck
            {
              OFFSET 5.0226 -0.0266342 0
              CHANNELS 3 Zrotation Xrotation Yrotation
              JOINT Head
              {
                OFFSET 6.69364 2.86102e-005 0
                CHANNELS 3 Zrotation Xrotation Yrotation
                End Site
                {
                  OFFSET 0 0 0
                }
              }
            }
          }
        }
      }
    }
  }
}
MOTION
Frames:	18
Frame Time:	0.0416667
211.912 95.6543 -220.743 -98.4953 -55.3766 -94.3688 -174.28 -11.5774 94.1155 -32.2633 31.3589 7.56567 58.1355 0.839512 8.77563 61.8636 -3.37895 1.86934 176.342 19.9505 87.7409 -12.244 -2.01005 1.23924 45.5126 12.266 20.785 22.8332 2.87883 -9.31162 -0.569082 7.66248 -90.4761 11.5439 -1.35489 -0.809455 -0.126543 -1.38917 -0.749044 -22.6634 -1.04897 -1.17923 -2.65077 -1.04897 -1.17923 102.785 -52.1203 -81.2265 35.4528 0.902904 9.93898 -2.41342 -28.1598 -11.2255 -5.89697 -0.357222 2.05448 -80.9812 -53.5694 92.2976 -19.6384 13.7351 -38.9754 11.333 34.5417 -28.698 3.5236 -0.27899 -8.02823 8.51942 0.606353 -3.96414 -21.7753 0.348935 7.02289 
203.906 95.1265 -213.728 -98.2414 -53.6696 -91.4391 -176.829 -8.52617 96.4178 -41.9521 18.2624 7.48503 45.9254 -7.20627 -2.65676 63.149 -5.44778 -8.38624 175.554 23.3824 91.8005 -31.3122 -6.99608 2.51777 53.65 9.30555 13.9464 26.1148 0.47164 1.52351 -0.582441 7.69875 -90.9551 11.4593 -1.60487 -1.73898 -0.211703 -1.67984 -1.66668 -22.7411 -1.00818 -2.14078 -2.72845 -1.00818 -2.14077 102.376 -50.5018 -81.8404 35.533 1.7587 6.67356 -1.13285 -27.4163 -8.48878 -5.39463 -0.29245 1.24145 -81.4295 -54.554 91.7028 -24.1869 10.0871 -33.8694 6.36196 41.4137 -17.6127 5.46526 -0.412459 -8.51391 8.88598 1.8408 -2.39798 -22.1767 1.1142 7.62206 
196.411 95.5917 -207.239 -98.8727 -55.0488 -91.9747 179.803 2.31203 95.1126 -59.597 12.7371 6.19024 46.7137 -5.08975 6.44005 57.9325 -3.90877 -4.56437 174.606 18.5656 92.8048 -36.3369 -5.88381 3.53104 62.7313 5.18604 11.3092 28.9917 -0.295392 2.83185 -0.487604 7.75746 -91.0142 11.3421 -1.44295 -1.87529 -0.329247 -1.52405 -1.80999 -22.8561 -0.812795 -2.22209 -2.84345 -0.812796 -2.22211 102.533 -50.9353 -81.6002 34.21 -0.0741703 4.09419 -1.31527 -22.6762 -11.5087 -7.6956 -0.429721 1.44488 -81.8398 -54.3915 91.1008 -28.9101 6.31285 -32.8233 -4.04647 51.0709 -0.686354 -0.18248 -0.00117745 -5.10458 7.71856 0.811536 -2.89793 -21.7772 0.412771 6.33193 
189.117 96.9258 -200.615 -98.4432 -53.1283 -93.5966 -178.253 13.7629 89.9336 -59.6813 10.0775 3.33851 53.5615 0.743703 10.2065 58.4014 -3.41331 -0.655577 174.825 11.2886 91.5547 -34.7183 -5.10026 2.34814 66.9532 5.31484 14.7531 27.2435 -0.0512684 4.15498 0.000915191 7.81805 -90.7726 11.2356 -0.357709 -1.50387 -0.436152 -0.423547 -1.48668 -22.9642 0.110744 -1.54184 -2.95157 0.110731 -1.54185 102.897 -51.4284 -81.0468 31.8746 -3.90284 1.16037 -3.54548 -19.2636 -19.1528 -10.5543 -0.602882 1.50296 -81.8282 -54.8192 91.1459 -30.5625 2.43473 -27.0518 -3.61136 58.3248 0.1044 -4.34959 -0.0613283 -6.59297 6.59529 -0.0520616 -3.7366 -20.7563 -0.1488 5.66927 
182.484 97.5257 -194.204 -97.5549 -50.6223 -94.0245 -177.04 18.4471 87.4626 -40.109 8.37094 1.00254 57.4012 2.95545 6.18899 60.1941 -1.79681 10.7377 174.369 3.61189 90.4807 -30.762 -4.3348 1.45506 68.6496 6.68266 19.4061 27.1061 0.0696445 3.30281 0.317108 7.91397 -90.5925 11.0464 0.356584 -1.21329 -0.62512 0.302838 -1.22782 -23.1571 0.704709 -1.05007 -3.14442 0.704727 -1.05006 102.696 -50.6349 -81.3466 30.1014 -6.42728 -3.05365 -4.64707 -14.1618 -26.3563 -11.4904 -0.48861 -0.246895 -81.5791 -55.4519 91.543 -28.0513 1.00289 -18.0502 -4.56179 51.9002 -0.0075341 -1.63088 -0.114495 -8.07251 7.84029 -0.228487 -3.33534 -21.2534 -0.287024 4.99358 
176.314 97.2606 -187.993 -93.6472 -48.0502 -90.1962 -178.303 19.8571 88.1363 -10.4894 9.84789 0.417437 52.5362 -0.761353 7.58409 48.7941 -1.85958 6.68431 174.696 -0.666205 91.9742 -27.4496 -3.7978 0.973817 69.114 5.98797 21.3283 29.8688 -0.542206 3.25686 0.590409 7.80489 -90.6195 11.2677 0.886686 -1.3212 -0.4037 0.827684 -1.35895 -22.9378 1.24275 -0.993676 -2.92515 1.24275 -0.993676 102.252 -50.2193 -82.0339 27.157 -8.35977 -9.18889 -6.15815 -12.955 -31.0586 -12.4172 -0.543553 -0.105896 -81.5343 -55.2429 91.5941 -28.3356 -1.94856 -12.1051 -3.52302 51.1979 -0.00448397 -1.5978 -0.0954199 -5.57228 8.21365 -0.28515 -3.89951 -19.7068 -0.356778 6.51395 
169.841 95.9625 -181.191 -93.4531 -44.3587 -89.2191 -178.837 23.0623 89.7655 -6.28533 12.4537 1.43828 54.0511 -2.78287 5.81609 45.74 -1.73743 4.85261 174.401 -6.1871 90.1267 -27.6947 -10.2613 0.335213 66.2123 5.15507 20.5712 40.1763 -2.6872 5.52382 0.836028 7.96386 -90.5529 10.9517 1.40855 -1.23361 -0.719105 1.3529 -1.29441 -23.2582 1.71415 -0.753212 -3.24556 1.71417 -0.753209 101.264 -50.0217 -83.574 25.7422 -9.70661 -14.5318 -7.41799 -13.0378 -33.7122 -14.1531 -0.626629 -0.030574 -81.1457 -55.5142 92.1654 -28.8571 -8.3 -12.147 0.0957487 57.9913 -0.00174437 -4.68799 -0.0438947 -6.91676 10.5633 0.21185 -3.7373 -20.9728 0.202208 5.85612 
162.159 95.0451 -173.243 -92.3532 -44.9729 -90.6111 -179.617 25.3938 87.4851 -17.9897 14.2741 1.18269 51.2459 -4.1846 7.34057 46.409 -1.70406 6.77039 173.838 -10.6699 87.8401 -27.2942 -13.7463 -1.02122 54.6759 9.19739 21.7173 50.4648 -3.81443 12.5681 0.828863 8.04763 -90.0621 10.7824 1.6218 -0.273281 -0.887546 1.60823 -0.344416 -23.4308 1.62895 0.226913 -3.41822 1.62895 0.226909 101.763 -50.7444 -82.791 25.5658 -12.9575 -13.0827 -9.66735 -12.9274 -37.8803 -14.748 -0.774554 0.930662 -81.973 -54.9669 90.9489 -28.3817 -9.5362 -14.7586 1.182 64.7658 0.000117188 -4.06805 -0.0722954 -5.08788 13.9841 -0.474174 -5.34432 -22.0414 0.0186048 5.79862 
153.953 94.5412 -165.199 -89.0323 -45.3453 -90.51 -179.221 26.8274 84.4978 -30.7039 14.1401 1.27791 57.9007 -0.793506 14.6468 46.3306 -1.98199 -0.591212 173.301 -6.51399 85.3761 -36.1407 -12.5657 -1.32533 36.7498 14.6856 22.2021 15.0816 -1.0768 21.3251 0.799578 8.03393 -89.428 10.798 1.85614 0.965098 -0.871932 1.89682 0.882437 -23.4116 1.48028 1.47835 -3.39892 1.48029 1.47835 101.818 -51.2012 -82.7019 27.8589 -20.7286 -6.98346 -9.03667 -10.0348 -40.2486 -15.3588 -0.730722 0.343052 -83.3926 -52.2452 88.6582 -27.6642 -6.54884 -16.1285 -0.584848 52.0716 -0.00137143 -2.81686 -0.080083 -7.06128 18.1373 -1.4751 -7.25789 -23.8698 -0.124795 4.9311 
146.251 94.4555 -157.453 -88.3625 -47.4433 -92.7089 -178.905 21.1208 81.7678 -33.274 16.2269 0.844163 63.9228 2.9484 13.044 51.4982 -1.98652 6.85878 173.982 8.52668 81.8642 -60.1416 -19.02 -1.68366 35.2695 15.9456 16.1647 20.2267 2.3019 0.068363 0.162632 8.50932 -88.9333 9.84224 0.807783 2.04688 -1.83002 0.897062 2.00936 -24.3524 0.155461 2.19496 -4.33971 0.155424 2.19494 102.158 -51.1931 -82.1808 29.7599 -25.2435 -5.92237 -12.94 -16.0044 -38.0999 -8.04597 -0.368292 0.0859845 -85.0598 -53.6278 86.3639 -21.2949 -2.16376 -17.6332 -3.39853 32.165 -0.50377 -1.04092 -0.171966 -10.4275 20.4908 -0.54492 -6.76473 -21.8993 0.857713 4.91966 
138.393 95.5347 -149.176 -82.1532 -49.9781 -85.9112 -178.313 14.0423 84.1832 -27.6434 18.5017 1.36439 69.1265 7.88514 13.277 53.6902 -2.09271 6.88037 175.469 28.4023 89.1048 -65.4571 -16.6282 -0.989817 50.305 8.08189 11.7306 39.3936 -2.66106 4.59576 -0.294059 8.80518 -89.1603 9.26425 -0.209481 1.68148 -2.4078 -0.135286 1.68907 -24.9354 -0.705103 1.54085 -4.92279 -0.705096 1.54084 102.433 -52.7419 -81.7633 32.1232 -20.8023 -4.32322 -10.7549 -19.2938 -33.0866 -12.8018 -0.643171 0.767133 -85.4022 -54.4088 85.965 -16.6504 -1.35287 -30.1924 -2.26367 20.5582 -5.4115 2.14848 -0.363604 -11.2126 24.0921 0.347314 -5.17802 -22.1317 1.43209 4.55926 
130.444 94.6898 -140.995 -74.0592 -52.6928 -79.0861 -176.727 7.81544 86.3176 -21.0224 23.6451 0.724311 70.9449 12.4566 17.4086 50.3491 -2.26042 1.50839 178.955 44.6921 87.427 -56.7308 -8.28414 -1.27335 59.0635 4.27627 14.7394 51.7859 -5.4889 1.74078 -0.564965 9.06718 -89.3528 8.74197 -0.839764 1.33782 -2.92944 -0.780066 1.37347 -25.4632 -1.20299 1.02363 -5.45055 -1.20298 1.02362 101.457 -52.5057 -83.2403 35.4822 -18.9796 2.51736 -6.75338 -14.6001 -32.012 -15.0452 -0.814743 1.13207 -86.4182 -56.0502 84.7364 -11.4984 -4.92314 -47.8567 0.928335 16.8913 -13.1709 0.523891 -0.374812 -15.4318 26.3393 0.752926 -4.60422 -22.3477 1.67538 4.7222 
121.543 90.9391 -132.015 -72.9394 -57.4006 -79.3531 -176.807 -0.91655 86.3495 -21.8913 30.3411 2.41245 71.7945 17.7339 23.0964 53.5925 -2.3604 4.03425 -179.761 54.8822 81.5586 -54.0441 -12.9611 -0.385082 62.0526 3.72727 15.6878 57.2277 -6.44288 3.53433 -0.761073 9.75749 -89.6 7.36339 -1.34678 0.853252 -4.30719 -1.30792 0.911703 -26.8472 -1.54094 0.408989 -6.83459 -1.54094 0.408968 99.8765 -50.0179 -85.7388 43.6199 -23.2442 20.7554 -6.29909 -2.88302 -45.6141 -12.8683 -0.537237 -0.342106 -87.0883 -50.6858 82.96 -12.2947 -8.2147 -65.0777 5.93565 9.54021 -31.4683 4.4934 -0.631977 -13.3779 25.3472 1.37138 0.00191626 -19.4056 1.16913 1.09538 
109.008 87.1097 -118.885 -66.968 -58.7324 -70.0809 -179.13 -0.164159 90.0523 -40.6154 25.0602 7.59889 64.7709 7.29623 9.33773 61.0087 -1.76312 6.88185 163.084 53.7229 93.1828 -63.1282 -12.9534 4.48284 57.537 5.22685 11.5933 54.9604 -6.0217 2.80598 -0.765121 9.59958 -90.7662 7.65411 -1.86067 -1.41859 -4.01625 -1.92131 -1.33533 -26.5506 -1.34836 -1.91214 -6.53798 -1.34838 -1.91214 98.0004 -48.5908 -88.7777 43.0618 -13.661 30.7006 3.92569 6.89218 -49.6325 -10.9366 -0.112848 -3.79241 -84.4541 -46.1862 86.3473 -8.7307 -10.1936 -54.8653 7.73242 3.48863 -54.1356 10.9285 -1.22631 -14.1568 22.4851 3.35332 3.48614 -19.3406 1.8251 1.60301 
95.2714 84.5003 -104.084 -69.9975 -47.7968 -68.8663 174.712 21.8597 94.9402 -80.3158 13.994 4.69553 39.1592 -10.6554 2.32982 41.0428 -1.41748 -5.63526 166.06 39.938 99.9931 -67.8804 -20.374 5.42095 68.2165 -6.2408 -2.64171 61.8238 -6.07434 10.1916 0.161664 9.90073 -91.2994 7.05586 -0.234671 -2.54167 -4.61769 -0.346256 -2.52892 -27.1319 0.539716 -2.49481 -7.11923 0.539721 -2.49481 99.8121 -50.9833 -85.8166 29.6528 -7.02838 7.2576 -5.29093 -6.01165 -50.2299 -19.3853 -0.0991084 -4.82758 -83.8564 -50.9616 87.8399 -6.68713 -0.219912 -17.2993 5.83144 5.72989 -43.8666 11.8253 -0.994911 -11.6146 24.8735 4.30767 -4.07921 -18.7086 4.21617 11.381 
80.9846 84.8318 -88.5815 -69.8443 -35.946 -69.7242 166.449 55.2365 99.6844 -95.4154 9.89509 3.81382 50.9732 -1.52709 12.743 49.1483 -2.54193 -3.76784 175.941 23.8521 94.3358 -57.0777 -18.514 1.20124 79.0633 -4.44968 14.3137 53.3147 -5.06972 6.47908 0.667161 9.60035 -90.7715 7.67583 0.996957 -1.58498 -3.99569 0.926244 -1.62732 -26.5292 1.42721 -1.21214 -6.51654 1.42722 -1.21213 101.854 -43.4512 -82.6635 28.1322 -18.1086 -20.7451 -38.8362 4.84007 -78.861 -19.246 -0.248767 -3.72278 -83.0236 -52.4535 89.2371 -18.393 5.11064 16.007 2.60057 21.428 -23.5082 8.13658 -0.648053 -10.3652 23.1982 4.64438 -9.86105 -18.7539 5.87236 15.2736 
62.2878 88.7084 -70.7229 -67.5552 -35.5498 -75.749 177.195 63.1998 88.5879 -63.1809 8.50212 1.77308 58.9717 2.51443 11.2387 55.5502 -2.76864 1.86574 177.432 -4.00428 86.5316 -19.5457 -14.7916 -2.66708 41.276 13.5839 31.9126 44.5298 -2.87459 18.8122 1.06752 9.1107 -89.5588 8.6453 2.3256 0.722894 -3.02371 2.35515 0.619787 -25.5704 2.00079 1.38861 -5.55773 2.00079 1.38861 103.414 -41.287 -79.976 21.7296 -27.9015 -25.6745 -40.1605 19.8098 -95.7073 -13.0987 -0.0989827 -4.43625 -86.1412 -46.4214 83.7275 -27.8243 6.48585 26.9195 3.58603 24.6137 -24.8818 6.53132 -0.814215 -13.645 18.2703 0.451273 -8.6543 -17.3556 1.97402 9.03288 
42.944 89.3205 -51.8683 -71.0304 -41.8798 -74.5872 -168.097 47.795 81.0317 -54.1149 16.0843 -4.11225 57.9651 1.71207 13.7978 64.1282 -2.8158 5.88043 178.53 3.04224 95.8248 -66.2249 -21.6692 -2.36117 34.5943 16.6746 13.1346 11.6933 3.10507 3.72288 0.618753 9.50399 -89.8043 7.86782 1.31988 0.328532 -3.80233 1.33308 0.270115 -26.342 1.16007 0.710049 -6.3294 1.16007 0.710054 102.611 -48.1935 -81.456 25.2316 -32.9594 -12.059 -31.1697 10.5238 -77.3942 -15.5971 0.0462595 -6.16251 -84.5789 -54.0733 87.1141 -13.4017 2.51323 1.84614 1.22927 9.1166 -28.2427 6.6932 -0.696318 -11.9814 17.8156 -0.455128 -8.21471 -16.1599 1.04194 8.78526 
